<?xml version="1.0" standalone="no"?>
<!DOCTYPE svg PUBLIC "-//W3C//DTD SVG 20010904//EN"
 "http://www.w3.org/TR/2001/REC-SVG-20010904/DTD/svg10.dtd">
<svg version="1.0" xmlns="http://www.w3.org/2000/svg"
 width="476.000000pt" height="476.000000pt" viewBox="0 0 476.000000 476.000000"
 preserveAspectRatio="xMidYMid meet">
<metadata>
Created by potrace 1.14, written by Peter Selinger 2001-2017
</metadata>
<g transform="translate(0.000000,476.000000) scale(0.100000,-0.100000)"
fill="#000000" stroke="none">
<path d="M805 4727 c-55 -22 -75 -37 -103 -80 l-27 -42 0 -2225 c0 -2181 0
-2226 19 -2255 23 -35 52 -64 86 -85 22 -13 219 -15 1583 -18 1068 -1 1571 1
1598 8 44 12 103 65 123 113 12 27 14 302 15 1735 1 936 -2 1701 -6 1700 -5
-2 -270 259 -590 580 l-582 582 -1043 -1 c-773 0 -1051 -4 -1073 -12z"/>
</g>
</svg>
